<svg width="16" height="15" viewBox="0 0 16 15" fill="none" xmlns="http://www.w3.org/2000/svg">
<path d="M11.25 12.428C11.5964 12.2667 11.9307 12.0771 12.25 11.861V14.4643C12.25 14.6064 12.1973 14.7426 12.1036 14.843C12.0098 14.9435 11.8826 15 11.75 15C11.6174 15 11.4902 14.9435 11.3964 14.843C11.3027 14.7426 11.25 14.6064 11.25 14.4643V12.428ZM7.55884 4.56931C7.52794 4.63139 7.50876 4.69937 7.50237 4.76939C7.496 4.83941 7.50256 4.91009 7.52167 4.97738C7.54079 5.04469 7.5721 5.1073 7.6138 5.16163C7.65549 5.21597 7.70677 5.26098 7.76471 5.29409L10.6876 6.96427L11.75 6.35714L8.23529 4.34874C8.17736 4.31562 8.1139 4.29505 8.04855 4.2882C7.9832 4.28136 7.91724 4.28838 7.85441 4.30887C7.79159 4.32935 7.73316 4.3629 7.68244 4.40758C7.63172 4.45228 7.58972 4.50723 7.55884 4.56931ZM15.7353 4.34874L8.23529 0.0630248C8.16288 0.0216448 8.08207 0 8 0C7.91793 0 7.83712 0.0216448 7.76471 0.0630248L0.264709 4.34874C0.184748 4.39443 0.11788 4.46254 0.0712549 4.54579C0.0246294 4.62905 0 4.72431 0 4.82141C0 4.9185 0.0246294 5.01377 0.0712549 5.09703C0.11788 5.18029 0.184748 5.2484 0.264709 5.29409L1.75 6.14283V9.47238C1.75026 9.70391 1.82028 9.92924 1.94964 10.1148C2.44494 10.821 4.34497 13.125 8 13.125C9.11698 13.1359 10.2238 12.8975 11.25 12.4249V7.28569L10.6876 6.96427L8 8.5L2.48978 5.35129L2.4862 5.34925L1.5625 4.82141L8 1.14282L14.4375 4.82141L13.5138 5.34925L13.5102 5.35129L11.75 6.35714L11.9853 6.4916C12.0648 6.53787 12.1313 6.60611 12.1779 6.68924C12.2244 6.77236 12.2493 6.86733 12.25 6.96427V11.8571C12.9414 11.3948 13.5509 10.805 14.0503 10.1149C14.1797 9.92933 14.2498 9.704 14.25 9.47238V6.14283L15.7353 5.29409C15.8153 5.24839 15.8821 5.18029 15.9287 5.09703C15.9754 5.01377 16 4.9185 16 4.82141C16 4.72431 15.9754 4.62905 15.9287 4.54579C15.8821 4.46253 15.8153 4.39443 15.7353 4.34874Z" fill="#141518"/>
</svg>
